<?xml version="1.0" standalone="no"?>
<!DOCTYPE svg PUBLIC "-//W3C//DTD SVG 20010904//EN"
 "http://www.w3.org/TR/2001/REC-SVG-20010904/DTD/svg10.dtd">
<svg version="1.0" xmlns="http://www.w3.org/2000/svg"
 width="381.000000pt" height="381.000000pt" viewBox="0 0 381.000000 381.000000"
 preserveAspectRatio="xMidYMid meet">
<metadata>
Created by potrace 1.14, written by Peter Selinger 2001-2017
</metadata>
<g transform="translate(0.000000,381.000000) scale(0.100000,-0.100000)"
fill="#000000" stroke="none">
<path d="M1710 3806 c-5 -4 -30 -9 -115 -22 -93 -15 -107 -18 -202 -44 -329
-90 -668 -296 -882 -534 -14 -16 -33 -36 -42 -45 -34 -35 -128 -161 -178 -240
-119 -186 -217 -435 -263 -662 -19 -98 -22 -144 -22 -324 0 -196 5 -274 19
-335 3 -14 8 -43 11 -65 16 -120 107 -378 181 -515 20 -36 44 -81 55 -100 10
-19 47 -74 81 -122 315 -440 784 -719 1327 -788 113 -15 483 -4 538 15 7 2 34
7 60 11 26 3 55 10 64 15 9 5 27 9 40 9 13 0 29 5 36 12 7 7 12 9 12 5 0 -3
12 -2 28 4 15 6 35 12 44 14 93 19 398 172 503 252 17 13 40 31 53 40 97 75
200 170 267 247 33 37 65 73 70 80 25 28 115 157 149 213 85 142 199 421 219
538 3 17 14 68 24 115 13 66 17 133 18 295 0 220 -2 242 -35 420 -13 71 -78
287 -90 299 -5 5 -10 16 -10 23 0 8 -13 43 -30 78 -16 35 -30 69 -30 75 0 5
-3 10 -7 10 -5 0 -13 10 -18 23 -16 34 -59 111 -66 117 -3 3 -16 23 -29 45
-57 93 -244 308 -327 375 -10 8 -41 34 -68 56 -146 121 -390 253 -588 319
-206 69 -315 86 -567 91 -124 3 -228 3 -230 0z"/>
</g>
</svg>
